<svg width="87" height="31" viewBox="0 0 87 31" fill="none" xmlns="http://www.w3.org/2000/svg">
<path d="M9.76217 9.2692e-05C11.8314 9.2692e-05 12.4816 1.48425 13.0271 2.96608C13.2562 3.59534 18.6334 18.3206 18.7951 18.7626C18.8381 18.8859 18.809 19.0883 18.6194 19.1616C18.4287 19.2337 15.6348 20.32 15.4801 20.3782C15.3254 20.4375 15.1521 20.3514 15.0963 20.1967C15.0381 20.0444 13.8785 16.8341 13.7482 16.4759H5.77844C5.65282 16.8341 4.47922 20.0514 4.42688 20.1967C4.37338 20.3445 4.20705 20.4445 4.04189 20.3782C3.87672 20.3131 1.07241 19.2267 0.904917 19.1616C0.744405 19.0988 0.671127 18.9161 0.726957 18.7626C0.92469 18.2113 6.22043 3.72212 6.49028 2.96608C7.01602 1.50635 7.68831 9.2692e-05 9.76217 9.2692e-05ZM0.301251 26.3486C0.13376 26.3486 0 26.4881 0 26.658V30.0997C0 30.2695 0.13376 30.4067 0.301251 30.4067H19.215C19.3859 30.4067 19.5197 30.2695 19.5197 30.0997V26.658C19.5197 26.4881 19.3859 26.3486 19.215 26.3486H0.301251ZM9.74356 4.80849L7.04975 12.8981H12.4816L9.77846 4.80849H9.74356ZM50.1659 18.0729C49.7693 18.2066 49.5076 18.2392 49.1959 18.2392C48.5515 18.2392 48.1944 17.9845 48.1944 17.3238C48.1944 16.6352 48.648 16.4049 49.539 16.4049C49.7565 16.4049 49.9705 16.4363 50.0705 16.4712V16.9644C50.0705 17.496 50.0996 17.8449 50.1659 18.0729ZM52.4561 18.8615C51.9804 18.1392 51.8559 17.7135 51.8559 16.8027V14.9533C51.8559 13.9577 51.7396 13.5983 51.4768 13.2354C51.1104 12.7213 50.4997 12.498 49.3773 12.498C48.5829 12.498 47.8117 12.584 47.065 12.7748L47.3349 14.0891C47.8397 14.0182 48.3689 13.9577 48.7422 13.9577C49.9345 13.9577 50.0705 14.1298 50.0705 15.0243V15.3581C49.8053 15.2872 49.5076 15.236 49.1621 15.236C47.3674 15.236 46.4195 16.1141 46.4195 17.5681C46.4195 18.9313 47.4326 19.6745 48.6666 19.6745C49.1272 19.6745 49.6088 19.5896 49.9903 19.4337C50.2206 19.3337 50.3206 19.2744 50.6184 19.0813C50.7975 19.3418 51.1569 19.6082 51.3035 19.6582L52.4561 18.8615ZM70.209 18.0729C69.8101 18.2066 69.553 18.2392 69.239 18.2392C68.5923 18.2392 68.2305 17.9845 68.2305 17.3238C68.2305 16.6352 68.69 16.4049 69.5833 16.4049C69.8008 16.4049 70.0159 16.4363 70.1136 16.4712V16.9644C70.1136 17.496 70.1416 17.8449 70.209 18.0729ZM72.5016 18.8615C72.0223 18.1392 71.9002 17.7135 71.9002 16.8027V14.9533C71.9002 13.9577 71.7816 13.5983 71.5164 13.2354C71.1546 12.7213 70.5428 12.498 69.4169 12.498C68.6237 12.498 67.8479 12.584 67.1011 12.7748L67.3675 14.0891C67.8734 14.0182 68.4038 13.9577 68.7877 13.9577C69.9729 13.9577 70.1136 14.1298 70.1136 15.0243V15.3581C69.8484 15.2872 69.553 15.236 69.2006 15.236C67.4035 15.236 66.4521 16.1141 66.4521 17.5681C66.4521 18.9313 67.4675 19.6745 68.7074 19.6745C69.1738 19.6745 69.6507 19.5896 70.0287 19.4337C70.2625 19.3337 70.3591 19.2744 70.6568 19.0813C70.8383 19.3418 71.1977 19.6082 71.3454 19.6582L72.5016 18.8615ZM86.4754 19.5198C86.4754 19.5198 85.4914 17.4227 85.2507 16.9458C84.9796 16.4084 84.7284 16.0374 84.1748 15.9036V15.8734C84.5458 15.8024 84.8412 15.5779 85.1646 14.8917C85.4705 14.2229 85.5612 14.0787 85.7415 13.9193C85.9183 13.7611 86.1602 13.8181 86.1602 13.8181L86.2509 12.5817C85.9939 12.5468 85.7089 12.5457 85.4147 12.5619C84.9261 12.591 84.6737 12.7318 84.433 12.9737C84.2445 13.1586 84.1166 13.4355 83.9584 13.753C83.7909 14.0996 83.6583 14.3788 83.4839 14.7312C83.3106 15.0929 83.2291 15.2558 82.7627 15.2558H82.4591V9.77856H80.6621V19.5198H82.4591V16.719L82.7046 16.7143C83.2198 16.7143 83.3105 16.8434 83.5827 17.3866C83.9014 18.0345 84.5121 19.5198 84.5121 19.5198H86.4754ZM35.8512 19.5198H37.9251L34.7881 9.9414C34.4578 9.8309 34.0495 9.76227 33.6134 9.76227C33.1377 9.76227 32.9678 9.82508 32.5956 9.9414L29.2761 19.5198H31.2662C31.2662 19.5198 31.5349 18.68 31.8512 17.639H35.2894C35.5965 18.6789 35.8512 19.5198 35.8512 19.5198ZM32.356 16.0327C32.356 16.0327 32.9306 14.1101 33.0202 13.8111C33.2482 13.0365 33.5948 11.8059 33.5948 11.8059H33.6518C33.6518 11.8059 33.9728 13.0807 34.1821 13.7972C34.2612 14.0822 34.8102 16.0327 34.8102 16.0327H32.356ZM55.5175 14.9371C54.8836 14.9371 54.3683 15.4547 54.3683 16.0886C54.3683 16.7271 54.8836 17.2412 55.5175 17.2412C56.1526 17.2412 56.6655 16.7271 56.6655 16.0886C56.6655 15.4547 56.1526 14.9371 55.5175 14.9371ZM40.3875 9.77856H38.5858V19.5186H40.3875V9.77856ZM76.1829 14.0461C77.1785 14.067 77.3018 14.2729 77.3018 15.108V19.5198H79.0872V14.9533C79.0872 13.9577 78.9709 13.5983 78.7057 13.2354C78.3393 12.7213 77.6193 12.498 76.4015 12.498C75.1965 12.498 74.4289 12.6259 73.4414 12.9202V19.5198H75.2454V14.1298C75.7188 14.0612 75.8025 14.0461 76.1829 14.0461ZM44.8434 9.60525C43.7175 9.60525 43.1045 9.82857 42.744 10.3415C42.4788 10.7056 42.3613 11.0731 42.3613 12.0711V12.9202H41.4668V14.3764H42.3613V19.5198H44.1479L44.1432 14.3764H45.924V12.9202H44.1432L44.1479 12.1397C44.1479 11.2464 44.284 11.0731 45.4773 11.0731C45.6064 11.0731 45.7518 11.0801 45.9065 11.0917L46.188 9.69249C45.7472 9.63433 45.2959 9.60525 44.8434 9.60525ZM59.1779 9.69598C59.7908 9.65992 61.161 9.60874 62.0206 9.60874C62.1776 9.60874 62.3404 9.6099 62.5033 9.61805C64.1933 9.61805 65.1622 10.8486 65.1622 12.2933C65.1622 13.2761 64.7121 13.9286 63.6571 14.3171C64.8982 14.5916 65.5484 15.5605 65.5484 16.7457C65.5484 17.6158 65.3029 18.3067 64.8528 18.7777C64.2689 19.3523 63.3849 19.6745 62.2078 19.6745C61.161 19.6745 59.8467 19.6419 59.1779 19.6024V9.69598ZM62.0206 11.2918C61.7228 11.2918 61.3541 11.2976 60.9889 11.3104V13.6495H62.0217C62.4312 13.6495 62.7603 13.5355 62.9848 13.3156C63.1988 13.1086 63.3105 12.8155 63.3105 12.4677C63.3105 11.7198 62.9057 11.2964 62.1532 11.2918H62.0206ZM62.0578 17.9949H62.1357C63.0744 17.9949 63.6489 17.496 63.6559 16.491C63.6466 16.1304 63.5082 15.7978 63.2605 15.557C62.9895 15.2848 62.6056 15.1429 62.1555 15.1429H60.9889V17.9845C61.318 17.9914 61.6809 17.9926 62.0578 17.9949Z" fill="#EE2A23"/>
</svg>
