<?xml version="1.0" encoding="UTF-8"?>
<svg width="300px" height="50px" version="1.1" viewBox="0 0 302 50" xmlns="http://www.w3.org/2000/svg">
    <defs>
        <linearGradient id="f" x1="2.1707" x2=".31199" y1="13.495" y2="8.0813" gradientTransform="scale(2.932 2.9412)" gradientUnits="userSpaceOnUse">
            <stop stop-color="#f2e812" offset=".1444"/>
            <stop stop-color="#e6e518" offset=".3037"/>
            <stop stop-color="#c9db26" offset=".5823"/>
            <stop stop-color="#a3cd38" offset=".891"/>
        </linearGradient>
        <linearGradient id="e" x1="2.8839" x2="7.6026" y1="2.2858" y2=".47382" gradientTransform="scale(2.932 2.9412)" gradientUnits="userSpaceOnUse">
            <stop stop-color="#0fa8df" offset=".0592"/>
            <stop stop-color="#0099f9" offset=".5385"/>
            <stop stop-color="#0290eb" offset=".9234"/>
        </linearGradient>
        <linearGradient id="d" x1="7.4236" x2="13.049" y1="14.494" y2="13.213" gradientTransform="scale(2.932 2.9412)" gradientUnits="userSpaceOnUse">
            <stop stop-color="#a3cd38" offset=".1226"/>
            <stop stop-color="#86c238" offset=".2846"/>
            <stop stop-color="#209f37" offset=".8693"/>
        </linearGradient>
        <linearGradient id="c" x1="7.561" x2="12.238" y1="1.3094" y2="2.7636" gradientTransform="scale(2.932 2.9412)" gradientUnits="userSpaceOnUse">
            <stop stop-color="#0290eb" offset=".0566"/>
            <stop stop-color="#0b89ca" offset=".79"/>
        </linearGradient>
        <linearGradient id="b" x1="2.5478" x2="7.5716" y1="13.727" y2="15.618" gradientTransform="scale(2.932 2.9412)" gradientUnits="userSpaceOnUse">
            <stop stop-color="#f2e812" offset=".1324"/>
            <stop stop-color="#ebe616" offset=".2977"/>
            <stop stop-color="#d8df1f" offset=".5306"/>
            <stop stop-color="#bad62d" offset=".8023"/>
            <stop stop-color="#a3cd38" offset=".9829"/>
        </linearGradient>
        <linearGradient id="a" x1="1.4415" x2="3.4509" y1="8.3272" y2="3.0598" gradientTransform="scale(2.932 2.9412)" gradientUnits="userSpaceOnUse">
            <stop stop-color="#a3cd38" offset=".0698"/>
            <stop stop-color="#80c55f" offset=".2599"/>
            <stop stop-color="#0fa8df" offset=".9216"/>
        </linearGradient>
    </defs>
    <g>
        <path d="m135.04 14.434 6.293-4.7031h-21.074v28.176h21.074v-4.707h-15.055v-7.1914h12.867v-4.7031h-12.867v-6.8711z" fill="#209f37"/>
        <path d="m104.33 20.703h-7.3008v-6.2695h11.68l6.2969-4.7031h-23.996v28.176h12.543c7.0273 0 11.086-3.2305 11.086-8.8555 0-5.3945-3.6484-8.3477-10.309-8.3477zm-1.0039 12.496h-6.2969v-7.793h6.2969c3.832 0 5.6094 1.293 5.6094 3.9219s-1.9141 3.8711-5.6094 3.8711z" fill="#209f37"/>
        <path d="m158.39 9.7305h-11.449v28.176h6.0195v-7.9805h5.4766c7.2969 0 11.859-3.8711 11.859-10.098s-4.5625-10.098-11.906-10.098zm-0.13672 15.492h-5.3359v-10.789h5.3359c3.8789 0 5.9766 1.9375 5.9766 5.3945s-2.0977 5.3945-5.9766 5.3945z" fill="#209f37"/>
        <path d="m80.699 31.816c-1.5938 0.87891-3.375 1.3398-5.1992 1.3398-5.4297 0-9.3516-3.9219-9.3516-9.3164 0-5.3945 3.9219-9.3164 9.3516-9.3164 1.9609-0.042969 3.8789 0.60156 5.4727 1.7539l4.3359-3.2266-0.27344-0.27734c-2.5078-2.2617-5.8867-3.4141-9.7188-3.4141-4.1484 0-7.9375 1.4297-10.672 4.0117-2.7383 2.6758-4.2891 6.4102-4.1992 10.285-0.046874 3.918 1.4609 7.6992 4.1992 10.465 2.8711 2.7227 6.7031 4.2461 10.629 4.1523 4.332 0 8.1172-1.5234 10.672-4.2891l-3.875-2.9062z" fill="#209f37"/>
        <path d="m242.7 9.7773v28.172h6.0195v-11.527h12.82v11.527h6.0234v-28.172h-6.0234v11.574h-12.82v-11.574zm-10.355 28.172h6.3398l-11.77-28.172h-6.1133l-11.996 28.172h6.0664l2.418-5.6719h12.773zm-13.23-10.375 4.6523-11.297 4.3789 11.297zm61.953-1.0117h3.7383l9.2148 11.344h7.7539l-12.316-14.574 10.766-13.602h-6.8867l-8.9414 12.082h-3.3281v-12.082h-6.0234v28.176h6.0234zm-92.152-5.8125v-6.2695h15.738v-4.7031h-21.762v28.172h12.547c7.0234 0 11.086-3.2266 11.086-8.8516 0-5.3945-3.6484-8.3477-10.312-8.3477zm0 12.496v-7.793h6.2969c3.8281 0 5.6094 1.293 5.6094 3.9219s-1.8711 3.918-5.6094 3.918h-6.2969z" fill="#209f37"/>
        <path d="m41.605 9.5469c1.0938 1.4297 2.0078 2.9961 2.7812 4.6562l-21.074 15.723-8.8516-5.625v-6.7305l8.8047 5.5781z" fill="#209f37"/>
        <path d="m5.4727 23.84c0-0.32422 0-0.59766 0.046875-0.92188l-5.3359-0.27734c0 0.37109-0.046875 0.78516-0.046875 1.1523 0 6.457 2.6016 12.312 6.7969 16.555l3.7852-3.8281c-3.2383-3.2266-5.2461-7.6992-5.2461-12.68z" fill="url(#f)"/>
        <path d="m23.266 5.8555c0.32031 0 0.59375 0 0.91406 0.046875l0.27344-5.3945c-0.36719 0-0.77734-0.046874-1.1406-0.046874-6.3867 0-12.18 2.6289-16.379 6.8711l3.7852 3.8281c3.1953-3.2734 7.6641-5.3047 12.547-5.3047z" fill="url(#e)"/>
        <path d="m23.266 41.824c-0.32031 0-0.59375 0-0.91406-0.046875l-0.27344 5.3945c0.36719 0 0.77734 0.046875 1.1406 0.046875 6.3867 0 12.184-2.6289 16.379-6.8711l-3.7852-3.8281c-3.1953 3.3203-7.6211 5.3047-12.547 5.3047z" fill="url(#d)"/>
        <path d="m33.301 8.9922 4.5156-3.3672c-3.9688-3.2266-9.0312-5.2109-14.551-5.2109v5.3945c3.7422 0.046875 7.207 1.1992 10.035 3.1836z" fill="url(#c)"/>
        <path d="m46.441 23.84c0-1.4297-0.13672-2.8125-0.36719-4.1953l-4.9727 3.7344v0.46094c0 5.3047-2.2812 10.055-5.8828 13.328l3.6016 4.0117c4.6562-4.2422 7.6211-10.469 7.6211-17.34z" fill="#209f37"/>
        <path d="m23.266 41.824c-5.2461 0-9.9453-2.3047-13.184-5.9492l-3.9688 3.6445c4.2422 4.75 10.355 7.6992 17.152 7.6992z" fill="url(#b)"/>
        <path d="m11.359 10.512-3.6055-4.0117c-4.6992 4.2891-7.6172 10.469-7.6172 17.34h5.3359c0-5.2578 2.2812-10.051 5.8867-13.328z" fill="url(#a)"/>
    </g>
</svg>
