<svg fill="none" height="32" viewBox="0 0 90 32" width="90" xmlns="http://www.w3.org/2000/svg"><g clip-rule="evenodd" fill-rule="evenodd"><g fill="#a39d9d"><path d="m86 12.9997c0-1.1014.9094-1.9997 1.9988-1.9997 1.1218 0 2.0012.8983 2.0012 1.9997 0 1.1013-.8794 1.9996-2.0012 1.9996-1.0894.0287-1.9988-.8696-1.9988-1.9996zm1.9988 1.5648c.8494 0 1.5165-.6952 1.5165-1.5361 0-.841-.6971-1.5362-1.5165-1.5362-.847 0-1.5141.6952-1.5141 1.5362 0 .8409.6671 1.5361 1.5141 1.5361zm-.2723-.6665h-.4247v-1.7679h.7594c.15 0 .3323 0 .4547.086.15.0883.2123.2605.2123.4348 0 .2031-.1223.3775-.3047.4348l.3347.7836h-.4547l-.2723-.6975h-.3047zm0-.9866h.2423c.0924 0 .1824 0 .2424-.0287s.0923-.1148.0923-.2031c0-.0574-.0323-.1434-.0923-.1721-.06-.0309-.18-.0309-.2424-.0309h-.2123z"/><path d="m62.0383.745241-.4666 3.138919c-1.0123-.55893-1.7656-.77156-2.5702-.77156-2.1293 0-3.6359 2.23369-3.6359 5.39894 0 2.17906 1.0123 3.50956 2.675 3.50956.6999 0 1.4789-.239 2.4397-.7453l-.4942 3.2989c-1.0637.318-1.7379.4253-2.5426.4253-3.0901 0-5.0119-2.3937-5.0119-6.22317 0-5.15998 2.6493-8.77683 6.4651-8.77683.4923 0 .9352.052653 1.2989.159984l1.1942.319967c.3104.131633.3895.157959.6485.26529z"/><path d="m52.5105 2.89998c-.0791-.02632-.1819-.02632-.2867-.02632-.9351 0-1.4788.50425-2.3626 1.91373l.259-1.7821h-2.5959l-1.7655 11.72741h2.8826c1.0379-7.17901 1.2969-8.40218 2.673-8.40218h.2076c.261-1.40948.5971-2.44633 1.0913-3.40421z"/><path d="m35.3475 14.5747c-.779.2653-1.4018.397-2.0502.397-1.4532 0-2.2579-.9032-2.2579-2.578 0-.32.0257-.6926.0771-1.0652l.1819-1.1422.1285-.93152 1.2476-8.00527h2.8549l-.3361 1.72945h1.4788l-.4152 2.84528h-1.4551l-.7513 4.89266c-.0257.2126-.0534.3726-.0534.48 0 .6115.3124.8768.9886.8768.3361 0 .5694-.0263.777-.1053z"/><path d="m24.0287 6.70111c0 1.49048.6742 2.50101 2.1807 3.27258 1.1428.58521 1.3504.76951 1.3504 1.30211 0 .719-.52 1.0632-1.637 1.0632-.8561 0-1.6351-.1316-2.5702-.4779l-.3895 2.7136.1305.0264.5199.1053c.1819.0263.4152.079.7513.1073.6762.0527 1.2219.1053 1.5837.1053 3.013 0 4.4148-1.2495 4.4148-3.9085 0-1.59574-.5714-2.55362-2.0245-3.27051-1.1942-.58526-1.3247-.71891-1.3247-1.27784 0-.63792.4666-.95586 1.4018-.95586.5713 0 1.3246.07898 2.0522.18429l.4152-2.71163c-.7533-.13365-1.8704-.23896-2.5188-.23896-3.2464 0-4.3615 1.7821-4.3358 3.96112z"/><path d="m84.9109 14.7065h-2.7264l.1305-1.1422c-.7789.9032-1.6093 1.3021-2.6473 1.3021-2.1036 0-3.4797-1.942-3.4797-4.8663 0-3.9105 2.1294-7.20738 4.6739-7.20738 1.115 0 1.9474.50628 2.7521 1.59579l.6227-4.123129h2.8292zm-4.2309-2.738c1.3503 0 2.2835-1.6221 2.2835-3.96314 0-1.48846-.5437-2.31471-1.5322-2.31471-1.297 0-2.2322 1.65047-2.2322 3.93682 0 1.54313.4943 2.34103 1.4809 2.34103z"/><path d="m44.4342 14.4673c-.9866.318-1.9198.478-2.9578.478-3.1949 0-4.8814-1.8085-4.8814-5.26533 0-4.04213 2.1274-6.99271 5.01-6.99271 2.3626 0 3.8691 1.67476 3.8691 4.28108 0 .85055-.1048 1.70109-.3638 2.89794h-5.7118c-.0257.18632-.0257.26732-.0257.37262 0 1.3831.8561 2.0737 2.5188 2.0737 1.0123 0 1.9475-.239 2.9854-.7432zm-1.6094-6.99471c.0277-.23896.0277-.4516.0277-.58525 0-.95788-.4943-1.51479-1.3504-1.51479-.9094 0-1.5579.74524-1.8189 2.10004z"/><path d="m12.5007 14.7063h-2.85493l1.63503-11.08951-3.68724 11.08951h-1.94742l-.2333-11.00851-1.73983 11.00851h-2.67301l2.23212-14.412721h4.12815l.10478 8.934791 2.80355-8.934791h4.4662z"/><path d="m19.9006 9.4937c-.3123-.02633-.4409-.05266-.6484-.05266-1.6371 0-2.4417.61156-2.4417 1.78206 0 .719.4151 1.1969 1.0379 1.1969 1.1428 0 2.0008-1.1969 2.0522-2.9263zm2.076 5.2126h-2.3883l.0514-1.2231c-.7256.9842-1.6865 1.4094-3.0111 1.4094-1.558 0-2.6216-1.3021-2.6216-3.1915 0-2.87164 1.8683-4.52008 5.0376-4.52008.3361 0 .7512.02633 1.1664.07898.0791-.39895.1048-.55893.1048-.77157 0-.76954-.4923-1.06318-1.8426-1.06318-.8047 0-1.7398.13365-2.3903.34629l-.3618.13163-.261.08101.3895-2.63265c1.4274-.4516 2.3883-.63791 3.4283-.63791 2.4654 0 3.7643 1.19684 3.7643 3.43054 0 .58526-.0534 1.01053-.2353 2.33901l-.5694 4.17573-.1047.7453-.0771.5832-.0515.4273z"/><path d="m66.9967 9.49366c-.2847-.02633-.4409-.05266-.6485-.05266-1.635 0-2.4674.6116-2.4674 1.7821 0 .7189.4172 1.1968 1.04 1.1968 1.1684 0 2.0245-1.1968 2.0759-2.92624zm2.0779 5.21264h-2.3883l.0514-1.2232c-.7276.9842-1.6884 1.4095-3.0111 1.4095-1.5579 0-2.6236-1.3021-2.6236-3.1916 0-2.87158 1.8703-4.52002 5.0376-4.52002.3104 0 .7533.02632 1.1685.07898.0771-.39895.1028-.55893.1028-.77157 0-.76954-.4923-1.06318-1.8426-1.06318-.8047 0-1.7399.13365-2.3884.34629l-.4151.10531-.261.081.3895-2.63264c1.4294-.4516 2.3903-.63791 3.4282-.63791 2.4654 0 3.7644 1.19684 3.7644 3.43053 0 .58324-.0514 1.01053-.2333 2.33901l-.5971 4.1495-.0791.7452-.0771.5832-.0514.399z"/><path d="m77.0976 2.89998c-.0791-.02632-.1819-.02632-.2867-.02632-.9352 0-1.4809.50425-2.3626 1.91373l.2609-1.7821h-2.5978l-1.7656 11.72741h2.8826c1.038-7.17901 1.297-8.40218 2.673-8.40218h.2096c.259-1.40948.6228-2.44633 1.0894-3.40421z"/></g><g fill="#b8b5b0"><path d="m63.8125 25.0632c0 2.6172-.7949 4.1621-2.0508 4.1621-.9238.0259-1.4629-1.0206-1.4629-2.5655 0-1.8318.8203-3.9269 2.1035-3.9269 1.0508 0 1.4102 1.1263 1.4102 2.3303zm2.7969.0259c0-2.9063-1.4121-5.1827-4.0528-5.1827-3.0527 0-5.0273 2.7488-5.0273 6.8053 0 2.9063 1.1797 5.2883 4.0527 5.2883 2.8985 0 5.0274-2.095 5.0274-6.9109z"/><path d="m58.4277 17.891-.4375 3.0877c-.9472-.5481-1.6152-.7594-2.3593-.7594-1.9747 0-3.3594 2.2006-3.3594 5.3142 0 2.1469.9238 3.4565 2.4629 3.4565.666 0 1.3847-.2372 2.2558-.7335l-.4609 3.2451c-.9746.315-1.6172.4186-2.3594.4186-2.8476 0-4.6426-2.3541-4.6426-6.1255 0-5.0771 2.461-8.6372 5.9766-8.6372.4609 0 .8457.0518 1.1797.1574l1.0762.313c.3593.1056.4355.1316.6679.2631z"/><path d="m40.9082 19.984c-.0762-.0259-.1777-.0259-.2812-.0259-.8711 0-1.3594.4984-2.1797 1.8837l.2558-1.7521h-2.3847l-1.6172 11.5435h2.6426c.9492-7.0684 1.205-8.2724 2.4628-8.2724.0762 0 .0762 0 .2051.0259.2305-1.3874.5645-2.408 1-3.3508z"/><path d="m75.4824 31.5276h-2.5136l.1289-1.1242c-.7188.889-1.4883 1.2817-2.4629 1.2817-1.9239 0-3.2051-1.9116-3.2051-4.79 0-3.8472 1.9746-7.0944 4.3086-7.0944 1.0254 0 1.8203.4984 2.539 1.5967l.5899-4.0565h2.6172zm-3.9238-2.7209c1.2578 0 2.1035-1.5967 2.1035-3.901 0-1.4651-.4883-2.2505-1.4101-2.2505-1.2051 0-2.0528 1.5967-2.0528 3.8731 0 1.5189.461 2.2784 1.3594 2.2784z"/><path d="m16.082 31.4757c-.8984.315-1.7695.4724-2.7187.4724-2.9492 0-4.4883-1.78-4.4883-5.1847 0-3.9508 1.9746-6.883 4.6152-6.883 2.1817 0 3.5664 1.6226 3.5664 4.2139 0 .8372-.1035 1.6744-.3339 2.8525h-5.2579c-.0253.1834-.0253.2631-.0253.3668 0 1.3355.7949 2.0153 2.3339 2.0153.9493 0 1.795-.2353 2.7442-.7316zm-1.4882-6.885c0-.2353.0253-.4446.0253-.5741 0-.9429-.4609-1.493-1.2558-1.493-.8477 0-1.4375.7335-1.6934 2.0671z"/><path d="m47.5781 31.4757c-.8984.315-1.7695.4724-2.7187.4724-2.9746 0-4.5156-1.78-4.5156-5.1847 0-3.9508 1.9765-6.883 4.6171-6.883 2.1797 0 3.5918 1.6226 3.5918 4.2139 0 .8372-.1035 1.6744-.3339 2.8525h-5.2579c-.0254.1834-.0254.2631-.0254.3668 0 1.3355.795 2.0153 2.334 2.0153.9493 0 1.795-.2353 2.7442-.7316zm-1.4883-6.885c.0254-.2353.0254-.4446.0254-.5741 0-.9429-.4609-1.493-1.2558-1.493-.8477 0-1.4375.7335-1.6934 2.0671z"/><path d="m84.5117 31.4757c-.9238.315-1.7949.4724-2.7187.4724-2.9493 0-4.5137-1.78-4.5137-5.1847 0-3.9508 1.9746-6.883 4.6426-6.883 2.1797 0 3.5644 1.6226 3.5644 4.2139 0 .8372-.1035 1.6744-.334 2.8525h-5.2578c-.0254.1834-.0254.2631-.0254.3668 0 1.3355.795 2.0153 2.334 2.0153.9492 0 1.7949-.2353 2.7442-.7316zm-1.4883-6.885c0-.2353.0254-.4446.0254-.5741 0-.9429-.4609-1.493-1.2558-1.493-.8477 0-1.4356.7335-1.6934 2.0671z"/><path d="m8.23242 20.5083c-.51172-.3668-1.23047-.6538-2.20508-.6538-1.07812 0-1.92382.2352-1.92382 1.3854 0 2.0431 3.89843 1.2837 3.89843 5.681 0 4.0047-2.56445 5.0532-4.89843 5.0532-1.0254 0-2.232426-.3409-3.10352-.7595l.640625-2.9322c.539065.4983 1.591795.8372 2.488285.8372.8457 0 2.1289-.2352 2.1289-1.7283 0-2.3282-3.89843-1.4651-3.89843-5.5494 0-3.7416 2.2832-4.8419 4.48828-4.8419 1.23046 0 2.41211.1834 3.07812.6538z"/><path d="m23.8281 31.4758c-.539.2611-1.2832.4445-2.3613.4445-2.3066 0-3.7441-2.3542-3.7441-5.2346 0-3.7694 2.0781-6.7534 5.1289-6.7534.6679 0 1.6933.287 2.4882.7594l-.5878 2.7489c-.5665-.3927-1.1563-.628-1.7715-.628-1.4102 0-2.4356 1.3336-2.4356 3.6897 0 1.3615.7442 2.4877 1.8985 2.4877.6914 0 1.1777-.1574 1.7695-.4983z"/><path d="m33.7266 28.5694c-.127.9967-.2559 1.9635-.3321 2.9841h-2.539l.205-1.8578h-.0253c-.795 1.2578-1.6153 2.1209-3.0782 2.1209-1.5898 0-2.4629-1.7283-2.4629-3.9528 0-.7854.0508-1.204.2051-2.408l.7188-5.3402h2.8476l-.7695 5.3661c-.0781.5761-.1797 1.1522-.1797 1.7542 0 .6797.3066 1.3614 1.0762 1.3076 1.1543 0 1.8476-1.4392 2.0527-3.1395l.7949-5.2884h2.7442z"/><path d="m87.1529 31.424h-.4358v-1.9116h-.6155v-.4186h1.6668v.4186h-.6155z"/><path d="m90.001 31.424h-.4104v-1.9376l-.3849 1.9376h-.4104l-.3849-1.9376v1.9376h-.4104v-2.3302h.6409l.3596 1.8318h.0254l.3595-1.8318h.6156z"/></g></g></svg>