<svg fill="none" height="32" viewBox="0 0 84 32" width="84" xmlns="http://www.w3.org/2000/svg"><g fill="#adb7b8"><path d="m57.2187 18.0568.8588.2764c-.0573.261-.1431.4759-.272.6448-.1288.1689-.2719.307-.458.3838-.1861.0921-.4151.1382-.7014.1382-.3435 0-.6155-.0461-.8445-.1536-.2147-.1074-.4008-.2917-.5583-.568-.1574-.261-.2433-.6141-.2433-1.0286 0-.5527.1431-.9826.4151-1.2897.272-.307.6728-.4452 1.1737-.4452.4008 0 .7014.0921.9305.261.229.1689.4007.4299.5009.7983l-.8588.1996c-.0286-.1075-.0573-.1842-.1002-.2303-.0573-.0767-.1145-.1381-.2004-.1842s-.1718-.0614-.2576-.0614c-.2147 0-.3865.0921-.501.2917-.0859.1382-.1289.3685-.1289.6602 0 .3684.0573.6294.1575.7676s.2577.2149.4437.2149c.1861 0 .3293-.0614.4151-.1689.1145-.1381.1861-.2917.2291-.5066z"/><path d="m58.4211 17.7502c0-.5527.1432-.9826.4295-1.2896.2862-.3071.687-.4606 1.2023-.4606.5296 0 .9304.1535 1.2167.4452.2863.3071.4294.7216.4294 1.2743 0 .3992-.0572.7216-.186.9672-.1289.2457-.3006.4453-.544.5834-.229.1382-.5296.215-.8731.215-.3579 0-.6442-.0614-.8875-.1843-.229-.1228-.4151-.307-.5725-.5834-.1575-.2763-.2148-.568-.2148-.9672zm.9734 0c0 .3378.0572.5834.1718.7369.1145.1536.2719.2303.4866.2303s.3722-.0767.4867-.2149c.1145-.1535.1718-.4145.1718-.783 0-.3224-.0573-.5527-.1861-.6909-.1145-.1535-.2863-.2149-.4867-.2149s-.3578.0768-.4723.2303c-.1146.1228-.1718.3685-.1718.7062z"/><path d="m62.2 16.0615h1.274l.4866 2.0573.4867-2.0573h1.2739v3.3776h-.8015v-2.5792l-.6155 2.5792h-.7157l-.6155-2.5792v2.5792h-.8016v-3.3776z"/><path d="m66.3508 16.0615h1.6175c.3579 0 .6155.0921.7873.2764.1717.1842.2576.4298.2576.7676s-.1002.6141-.2863.7984c-.186.1995-.4866.2917-.8731.2917h-.5296v1.2589h-.9734zm.9734 1.4432h.2433c.1861 0 .3149-.0307.4008-.1075.0716-.0768.1145-.1535.1145-.261s-.0286-.1996-.1002-.2763c-.0715-.0768-.1861-.1075-.3721-.1075h-.272v.7523z"/><path d="m69.5288 16.0615h.9734v2.5486h1.5172v.829h-2.4906z"/><path d="m72.5061 16.0615h.9733v3.3776h-.9733z"/><path d="m76.113 18.871h-1.1022l-.1574.5527h-.9877l1.1881-3.3776h1.0592l1.1881 3.3776h-1.0163zm-.2004-.7215-.3435-1.2129-.3436 1.2129z"/><path d="m77.6018 16.0615h.9018l1.188 1.8731v-1.8731h.9161v3.3776h-.9161l-1.1737-1.8577v1.8577h-.9161z"/><path d="m81.0371 16.0615h2.963v.8291h-.9877v2.5485h-.9733v-2.5485h-.9877v-.8291z"/><path d="m46.2312 21.0314 2.7776-.8642-.9024-1.979c-.6626.8223-1.3253 1.8815-1.8752 2.8432zm-.9446-9.0453-5.4423-11.9861-39.8443 2.22997 11.0397 29.77003 20.9603-6.5c-2-2-1.565-4.385 0-5.5 2-1 4.5 0 6 2 1.6214-2.676 6.2432-8.6063 7.2866-10.0139z"/></g><path d="m39 8.7468c1.6542 0 3-1.28023 3-2.8734s-1.3458-2.8734-3-2.8734-3 1.28023-3 2.8734c0 1.57895 1.3458 2.8734 3 2.8734zm-2.4533 1.23755h4.9066v13.01565h-4.9066z" fill="#fefefe"/><path d="m34.6401 13.2258c.0432.0149.072 0 .072-.0446v-3.44736c0-.04458-.0288-.08916-.072-.11888 0 0-.6622-.44578-2.6778-.56466-.1007-.05943-1.8715-.07429-2.3466 0-7.3422.60924-7.6157 6.0924-7.6157 6.3301v1.3374c0 .1634 0 5.7654 7.6157 6.2558.7486.0594 2.2027 0 2.3466 0 1.7564 0 2.9657-.5498 2.9657-.5498.0432-.0149.072-.0595.072-.104v-3.2245c0-.0446-.0288-.0595-.0576-.0297 0 0-.5471.4457-2.9369.6983-.6766.0743-1.0077.0446-1.2525 0-3.3975-.5943-3.5559-3.1502-3.5559-3.1502 0-.0445-.0144-.1188-.0144-.1485v-.9808c0-.0445 0-.1188.0144-.1486 0 0 .2304-2.749 3.5559-3.0461h1.2525c1.4541.1931 2.6346.9361 2.6346.9361z" fill="#fefefe"/><path d="m7 22.9237c0 .0458.03108.0763.07769.0763h5.29851c.0467 0 .0777-.0305.0777-.0763v-4.059c0-.0458.0311-.0763.0777-.0763 0 0 8.4684.5951 8.4684-4.9746 0-4.40998-5.3141-4.88303-7.0544-4.80673-.0311 0-6.86791 0-6.86791 0-.04661 0-.07769.03052-.07769.0763zm5.3607-7.233v-3.647h1.3052s1.8802.0763 2.0355 1.3428c.0311.0916.0311.7172 0 .7478-.2486 1.4801-1.8801 1.5564-1.8801 1.5564z" fill="#fefefe"/><path d="m38.4011 29c.4037 0 .7208 0 1.2398-.2307 1.7877-.9375 7.8283-15.6912 14.2005-20.23412.0433-.02884.0865-.07211.1154-.11537.0432-.05769.0432-.11538.0432-.11538s0-.30286-.9371-.30286c-5.6658-.15864-11.5622 11.73953-14.6618 16.44103-.0433.0577-.2451 0-.2451 0s-2.076-2.4517-3.8781-3.3891c-.0433-.0144-.2451-.0866-.4613-.0721-.1442 0-.9804.173-1.3696.5769-.4614.4903-.447.7643-.447 1.3556 0 .0433.0289.2452.0866.3461.4469.7788 2.4508 3.5479 4.1087 5.0766.2451.1875.6344.6634 2.2058.6634z" fill="#99a39d"/><g fill="#adb7b8"><path d="m55 4h4.4931c.8932 0 1.6077.13905 2.1435.40169.5497.27809 1.0031.66432 1.3466 1.1587.3573.50984.6183 1.09691.7695 1.76124.1649.66432.2473 1.375.2473 2.13202 0 1.17415-.1237 2.08565-.3572 2.73455-.2336.6489-.5634 1.1896-.9894 1.6376-.4259.4326-.8794.7262-1.3603.8807-.6595.2008-1.2641.2935-1.8.2935h-4.4931zm3.0229 2.48736v6.00984h.742c.632 0 1.0855-.0773 1.3466-.2318.261-.1544.4809-.4325.632-.8188.1512-.3862.2336-1.0351.2336-1.9157 0-1.17416-.1649-1.96208-.5084-2.39467-.3435-.43258-.8931-.64887-1.6901-.64887z"/><path d="m65 11.3035 2.9212-.1937c.0695.5067.1947.8943.3895 1.1626.3199.4322.765.6409 1.3493.6409.4312 0 .779-.1044 1.0154-.3279.2365-.2236.3617-.477.3617-.7602 0-.2683-.1113-.5217-.3338-.7453-.2226-.2235-.7512-.4173-1.5719-.6111-1.3493-.3279-2.2952-.76013-2.8795-1.29671-.5842-.53659-.8624-1.22222-.8624-2.05691 0-.55149.153-1.05827.4451-1.55014s.7373-.8645 1.3354-1.1477c.5982-.28319 1.405-.41734 2.4343-.41734 1.2659 0 2.2396.25339 2.8934.76016.6677.50678 1.0572 1.31166 1.1824 2.41464l-2.8934.17886c-.0835-.47696-.2365-.81978-.4869-1.04336-.2503-.22358-.5842-.32791-1.0154-.32791-.3617 0-.626.07452-.8068.23848s-.2643.35772-.2643.5962c0 .16396.0695.32792.2226.46206.1391.13415.4868.26829 1.0293.38754 1.3354.313 2.2952.62601 2.8795.93902.5842.31301 1.0015.71545 1.2658 1.17751.2643.4621.3895.9986.3895 1.5799 0 .6857-.1808 1.3117-.5286 1.8781-.3478.5813-.8485 1.0135-1.4745 1.3116s-1.4328.4472-2.3926.4472c-1.6831 0-2.8516-.3428-3.5054-1.0434-.6399-.7005-1.0015-1.5799-1.0989-2.6531z"/><path d="m74.9182 11.1717 2.9478-.1903c.0701.4976.1965.8782.393 1.1416.3228.4245.772.6294 1.3616.6294.4351 0 .786-.1025 1.0246-.322.2387-.2196.365-.4684.365-.7465 0-.2634-.1123-.5122-.3369-.7318-.2246-.2195-.758-.4098-1.5861-.6001-1.3616-.3219-2.3161-.7464-2.9057-1.27329-.5755-.5269-.8703-1.20016-.8703-2.01978 0-.54153.1545-1.03915.4492-1.52214.2948-.48299.744-.8489 1.3476-1.12698.6035-.27809 1.4177-.40981 2.4564-.40981 1.2774 0 2.2599.24881 2.9197.74644.6737.49762 1.0668 1.28797 1.1931 2.37104l-2.9197.17563c-.0842-.46835-.2386-.80498-.4912-1.02452-.2527-.21954-.5896-.322-1.0247-.322-.365 0-.6317.07319-.8142.23418-.1825.161-.2667.35127-.2667.58544 0 .161.0702.322.2246.45372.1404.13173.4913.26345 1.0387.38054 1.3476.30735 2.3161.61471 2.9057.92207.5895.30736 1.0106.70253 1.2773 1.15625.2667.45371.3931.98061.3931 1.55141 0 .6733-.1825 1.288-.5334 1.8441-.351.5709-.8563.9953-1.4879 1.288-.6317.2927-1.4458.4391-2.4144.4391-1.6985 0-2.8775-.3366-3.5373-1.0245-.6597-.6879-1.0247-1.5514-1.1089-2.6052z"/></g></svg>