<svg fill="none" height="32" viewBox="0 0 74 32" width="74" xmlns="http://www.w3.org/2000/svg"><g fill="#9da0a3"><path d="m27.3565 17.2698-3.7273 9.9036-.3989-2.0123c-.927-2.4673-2.9373-5.054-5.2761-6.1026l3.4066 12.714h4.0284l5.9919-14.4989h-4.0246z"/><path d="m30.5479 31.784 2.3819-14.5297h3.8055l-2.3818 14.5297z"/><path d="m48.1637 17.613c-.7509-.293-1.9399-.613-3.4105-.613-3.7664 0-6.4103 1.9738-6.4338 4.7957-.0234 2.0894 1.893 3.2575 3.3323 3.9514 1.4862.7093 1.9829 1.1681 1.979 1.8003-.0156.9753-1.1889 1.4187-2.2802 1.4187-1.5214 0-2.331-.2198-3.5787-.7595l-.4927-.2313-.532 3.2498c.8918.4048 2.5345.7556 4.2436.7749 3.9972 0 6.5942-1.9507 6.6255-4.9615.0156-1.6576-1.0013-2.9105-3.1993-3.9475-1.3259-.6747-2.1472-1.118-2.1355-1.8042 0-.6014.6884-1.249 2.1824-1.249 1.2477-.0193 2.1433.2621 2.8473.559l.3403.1657z"/><path d="m57.9219 17.2698h-2.9411c-.9113 0-1.5958.2544-1.9986 1.2066l-5.6516 13.3154h3.9972s.6531-1.7927.8017-2.1859c.4342 0 4.3179.0078 4.8733.0078.1174.505.4615 2.1742.4615 2.1742h3.5357zm-4.6933 9.3639c.3168-.8327 1.5175-4.0632 1.5175-4.0632-.0235.0385.3129-.8404.5045-1.384l.2542 1.2529s.7314 3.4657.884 4.1943c-.5906 0-2.4171 0-3.1602 0z"/></g><path d="m20.1757 17.2621h-6.1405l-.0352.2506c4.7716 1.2027 7.9201 4.1596 9.2342 7.6522l-1.3337-6.6769c-.2308-.9214-.8996-1.1951-1.7248-1.2259z" fill="#ccc"/><g fill="#9da0a3"><path d="m5.20173 13.4901h-2.41398l-2.78775-12.580944 2.67095-.448341 1.90781 9.847985 4.85521-9.715432h2.56583z"/><path d="m17.7702 9.37624h-5.7624c-.1557 1.75046.6541 2.51076 2.0285 2.51076 1.1525 0 2.1648-.4289 3.2589-1.115l-.0078 1.7504c-1.0707.6706-2.305 1.0995-3.7572 1.0995-2.5075 0-4.16609-1.4347-3.66772-4.67061.44772-2.92008 2.46852-4.69006 4.80852-4.69006 2.6943 0 3.5898 2.02729 3.2004 4.577-.0311.18323-.0817.40936-.1012.53801zm-3.3913-3.57504c-.8916 0-1.7248.70565-2.118 2.17933h3.5703c.0623-1.39571-.3738-2.17933-1.4523-2.17933z"/><path d="m21.5231 8.2768-.7943 5.154h-2.2309l1.3822-8.99026h1.8961v1.80508c.7553-1.04094 1.7832-1.91813 3.1888-1.9922l.0117 2.21442c-1.4056.09747-2.671.8421-3.4536 1.80896z"/><path d="m24.9495 13.4347 1.3822-8.99027h2.231l-1.3822 8.99027zm2.7489-10.49904c-.7437 0-1.2577-.52242-1.1447-1.26706.1168-.764134.7942-1.302145 1.5379-1.302145.7242 0 1.2381.538011 1.1213 1.302145-.1168.74854-.7904 1.26706-1.5145 1.26706z"/><path d="m34.7419 1.98826c-.7632 0-1.2226.33528-1.3472 1.1345l-.2025 1.32164h1.7093v1.82456h-1.9896l-1.1019 7.16574h-2.2115l1.1019-7.16574h-1.3004l.2803-1.82456h1.3004l.2375-1.54385c.3076-1.992206 1.6859-2.736854 3.5237-2.736854.3893 0 .6813.038988.8994.074075l.0155 1.824559c-.218-.03899-.5451-.07407-.9149-.07407z"/><path d="m34.7653 13.4347 1.3821-8.99027h2.231l-1.3822 8.99027zm2.7449-10.49904c-.7437 0-1.2576-.52242-1.1447-1.26706.1168-.764134.7943-1.302145 1.5379-1.302145.7242 0 1.2382.538011 1.1214 1.302145-.113.74854-.7865 1.26706-1.5146 1.26706z"/><path d="m47.022 9.37624h-5.7624c-.1558 1.75046.6541 2.51076 2.0285 2.51076 1.1525 0 2.1648-.4289 3.2589-1.115l-.0078 1.7504c-1.0707.6706-2.305 1.0995-3.7573 1.0995-2.5074 0-4.166-1.4347-3.6677-4.67061.4478-2.92008 2.4685-4.69006 4.8085-4.69006 2.6943 0 3.5898 2.02729 3.2005 4.577-.0273.18323-.0779.40936-.1012.53801zm-3.3913-3.57504c-.8916 0-1.7248.70565-2.1181 2.17933h3.5665c.0701-1.39571-.3699-2.17933-1.4484-2.17933z"/><path d="m53.6291 13.4347.0039-1.2476c-.7475.7642-1.7248 1.4347-2.9707 1.4347-1.8767 0-3.1693-1.3957-2.7021-4.42882.5139-3.34893 2.5853-4.83821 4.6644-4.83821.8566 0 1.5185.14816 2.0285.33529l.6658-4.335283 2.2855-.354777-2.0636 13.4386h-1.9117zm.7476-6.90448c-.5179-.26121-.9267-.38987-1.6859-.38987-1.172 0-2.1726.94737-2.4763 2.92398-.2686 1.75047.3504 2.56917 1.3355 2.56917.8176 0 1.5224-.4834 2.2349-1.228z"/><path d="m62.3778 13.5166c-1.0551 0-1.9156-.1677-2.7176-.4523l1.4678-9.54383 1.7287-.26901-.6346 4.12866c.5061-.45224 1.207-.90058 2.0674-.90058 1.4367 0 2.3984 1.07212 2.048 3.35672-.3854 2.51074-1.9312 3.68034-3.9597 3.68034zm1.2459-5.53999c-.5645 0-1.1291.38207-1.6274.88889l-.475 3.0877c.3309.1287.5645.1833 1.0434.1833 1.0707 0 1.8183-.6472 2.0558-2.19887.1985-1.30995-.2375-1.96102-.9968-1.96102z"/><path d="m70.3168 13.8011c-.8644 1.6764-1.7171 2.1988-3.0253 2.1988-.2959 0-.4594-.0273-.6074-.0701l-.0117-1.3958c.2181.0546.4478.0975.7748.0975.4945 0 .9228-.2261 1.207-.7173l.2258-.4523-1.4328-6.70954 1.7949-.22611.8333 4.84995 2.2504-4.75249h1.6742z"/></g></svg>