<svg width="21" height="23" viewBox="0 0 21 23" fill="none" xmlns="http://www.w3.org/2000/svg">
<path d="M10.8911 0.912468C10.777 0.830098 10.6398 0.785767 10.4991 0.785767C10.3584 0.785767 10.2213 0.830098 10.1072 0.912468C9.53305 1.32675 8.24287 2.0839 6.62859 2.73479C5.01252 3.38657 3.12502 3.91068 1.34823 3.91068C1.17063 3.91068 1.00031 3.98123 0.874723 4.10682C0.74914 4.2324 0.678589 4.40272 0.678589 4.58032V11.5018C0.678589 14.2044 2.19912 16.7169 4.10448 18.6C6.00895 20.4812 8.4152 21.85 10.3839 22.1928L10.4991 22.2125L10.6134 22.1928C12.5831 21.8491 14.9884 20.4812 16.8929 18.6C18.7991 16.7169 20.3197 14.2044 20.3197 11.5018V4.58032C20.3197 4.40272 20.2491 4.2324 20.1235 4.10682C19.9979 3.98123 19.8276 3.91068 19.65 3.91068C17.8732 3.91068 15.9866 3.38657 14.3706 2.73479C12.7554 2.083 11.4652 1.32586 10.8911 0.912468ZM15.6536 8.18747L8.73395 14.8839C8.61161 15.0025 8.44866 15.07 8.27829 15.0726C8.10793 15.0753 7.94296 15.0129 7.81698 14.8982L5.36162 12.666C5.2302 12.5465 5.15166 12.3796 5.14329 12.2021C5.13492 12.0246 5.1974 11.851 5.31698 11.7196C5.43657 11.5882 5.60346 11.5096 5.78095 11.5013C5.95844 11.4929 6.13199 11.5554 6.26341 11.675L8.25359 13.4848L14.7214 7.22497C14.7846 7.16376 14.8593 7.1156 14.9411 7.08324C15.0229 7.05088 15.1103 7.03495 15.1983 7.03636C15.2862 7.03777 15.373 7.05649 15.4538 7.09146C15.5345 7.12642 15.6076 7.17695 15.6688 7.24015C15.73 7.30334 15.7781 7.37798 15.8105 7.45979C15.8429 7.5416 15.8588 7.62898 15.8574 7.71695C15.856 7.80492 15.8372 7.89174 15.8023 7.97248C15.7673 8.05321 15.7168 8.12626 15.6536 8.18747Z" fill="#21A038"/>
</svg>
